# Storage Bin (Lagersichtkasten)
# Dimensions: 100x150x75, Wall thickness: 2
# Generated by Gemini

# --- Outer Vertices ---
v 0 0 0
v 100 0 0
v 100 0 150
v 0 0 150
v 0 75 0
v 100 75 0
v 100 75 90
v 0 75 90
v 100 35 150
v 0 35 150

# --- Inner Vertices (Cavity) ---
v 2 2 2
v 98 2 2
v 98 2 148
v 2 2 148
v 2 75 2
v 98 75 2
v 98 75 90
v 2 75 90
v 98 35 148
v 2 35 148

# --- Outer Faces ---
# Bottom
f 1 3 2
f 1 4 3
# Back
f 1 2 6
f 1 6 5
# Front
f 4 9 10
f 4 3 9
# Right Side
f 2 3 9
f 2 9 7
f 2 7 6
# Left Side
f 1 10 4
f 1 8 10
f 1 5 8

# --- Inner Faces ---
# Inner Bottom
f 11 12 13
f 11 13 14
# Inner Back
f 11 16 12
f 11 15 16
# Inner Front
f 14 13 19
f 14 19 20
# Inner Right Side
f 12 19 13
f 12 17 19
f 12 16 17
# Inner Left Side
f 11 14 20
f 11 20 18
f 11 18 15

# --- Top Rim (Bridging inner and outer shells) ---
# Back Rim
f 5 15 16
f 5 16 6
# Right Flat Rim
f 6 16 17
f 6 17 7
# Right Sloped Rim
f 7 17 19
f 7 19 9
# Front Lip Rim
f 9 19 20
f 9 20 10
# Left Sloped Rim
f 10 20 18
f 10 18 8
# Left Flat Rim
f 8 18 15
f 8 15 5
